<svg version="1.2" xmlns="http://www.w3.org/2000/svg" width="480" height="480"><style>.s0{fill:#ffedb9}.s1{fill:#aaa}.s2{fill:#666}</style><g id="Layer"><path id="Layer" class="s0" d="M258.1.7q1.6.1 3.2.3-1.6-.2-3.2-.3zM246.1.1q1.1 0 2.3.1-1.2-.1-2.3-.1zM252.1.3q1.4.1 2.9.2-1.5-.1-2.9-.2zM.1 248v-2 2zM1.4 266.3l-.2-2.6.2 2.6z"/><path id="Layer" class="s1" d="M303.6 8.5c38.5 10.6 73.2 30.6 101.4 57.3-9.5-1.1-19.2-1.8-29-1.8-11.1 0-22 .8-32.7 2.2q.6.9 1.3 1.8c9.1 13.5 8 30.2-2.5 37.3-10.5 7.1-26.4 1.9-35.5-11.6-3.8-5.6-5.8-11.8-6.1-17.6-18.2 6.1-35.4 14.2-51.3 24.1 4.2 5.5 6.8 12.3 6.8 19.8 0 17.7-14.3 32-32 32-9.6 0-18.3-4.3-24.1-11-39.7 42.8-63.9 100.1-63.9 163 0 68.6 28.8 130.5 75 174.2-77.9-9.4-144.3-56.1-180.9-121.7C71.1 430.2 149.7 480 240 480c132.5 0 240-107.5 240-240 0-110.5-74.7-203.6-176.4-231.5zM186.3 186.3c3.1-2.9 8.3-2.9 11.4 0 1.4 1.5 2.3 3.6 2.3 5.7s-.9 4.2-2.3 5.7c-1.5 1.4-3.6 2.3-5.7 2.3s-4.2-.9-5.7-2.3c-1.4-1.5-2.3-3.6-2.3-5.7 0-2.2.9-4.2 2.3-5.7zm-4.6 203.4c-1.5 1.4-3.6 2.3-5.7 2.3s-4.2-.9-5.7-2.3c-1.4-1.5-2.3-3.6-2.3-5.7s.9-4.2 2.3-5.7c3.1-2.9 8.3-2.9 11.4 0 1.4 1.5 2.3 3.6 2.3 5.7s-.9 4.2-2.3 5.7zM184 300c0-24.3 19.7-44 44-44s44 19.7 44 44-19.7 44-44 44-44-19.7-44-44zm84.3 138.9c-19.7 5.3-38.9-2.6-42.9-17.6-4-15 8.7-31.4 28.3-36.7 19.7-5.3 38.9 2.6 42.9 17.6 4 15-8.7 31.4-28.3 36.7zm57.4-145.2c-1.5 1.4-3.6 2.3-5.7 2.3s-4.2-.9-5.7-2.3c-1.4-1.5-2.3-3.6-2.3-5.7s.9-4.2 2.3-5.7c3.1-2.9 8.3-2.9 11.4 0 1.4 1.5 2.3 3.6 2.3 5.7s-.9 4.2-2.3 5.7zM312 216c-13.3 0-24-10.7-24-24s10.7-24 24-24 24 10.7 24 24-10.7 24-24 24zm66.4-69.7c2.8-2.9 8.2-2.9 11.3 0 1.4 1.5 2.3 3.6 2.3 5.7s-.9 4.2-2.3 5.7c-1.5 1.4-3.6 2.3-5.7 2.3-2.2 0-4.2-.9-5.7-2.3-1.4-1.5-2.3-3.6-2.3-5.7 0-2.2.9-4.2 2.4-5.7zm5.5 206.3c-9 9-21.8 10.8-28.5 4-6.8-6.7-5-19.5 4-28.5s21.8-10.8 28.5-4c6.8 6.7 4.9 19.5-4 28.5zm4.4-85c-12.3-2-20.1-16.9-17.4-33.3 2.7-16.4 14.9-28.1 27.2-26.1 12.3 2.1 20.1 17 17.4 33.4-2.7 16.4-14.9 28.1-27.2 26z"/><path id="Layer" class="s0" d="M.4 254.3q0-1.2-.1-2.4.1 1.2.1 2.4zM298.1 7.1l5.2 1.4-5.2-1.4zM287.1 4.6q2.3.5 4.5 1-2.2-.5-4.5-1zM264 1.2q1.8.2 3.5.4-1.7-.2-3.5-.4zM.9 260.3q-.1-1.2-.2-2.5.1 1.3.2 2.5zM292.6 5.8q2.5.6 4.9 1.2-2.4-.6-4.9-1.2zM269.9 1.8l3.8.6-3.8-.6zM275.7 2.6q2 .3 4 .7-2-.4-4-.7zM281.4 3.6q2.2.3 4.3.8-2.1-.5-4.3-.8zM4 283.7q-.3-1.4-.5-2.7.2 1.3.5 2.7zM2.1 272.1q-.1-1.3-.3-2.6.2 1.3.3 2.6zM14.1 321.2q-2.3-6.5-4.3-13.1 2 6.6 4.3 13.1zM17.9 331l-1.6-3.8 1.6 3.8zM20 336.1l-1.6-3.8 1.6 3.8zM15.9 325.9q-.8-2-1.5-4 .7 2 1.5 4zM5.1 289.4l-.6-2.8.6 2.8zM7.7 300.6q-.3-1.4-.7-2.9.4 1.5.7 2.9zM6.3 295l-.6-2.8.6 2.8zM3 278q-.2-1.4-.4-2.7.2 1.3.4 2.7zM9.2 306.2q-.4-1.6-.8-3.1.4 1.5.8 3.1zM24.7 346.2q-.9-1.9-1.8-3.9.9 2 1.8 3.9zM29.9 356.1l-2.2-4.2 2.2 4.2zM27.3 351.2q-1.1-2-2.1-4 1 2 2.1 4zM22.3 341.2q-.9-1.9-1.7-3.8.8 1.9 1.7 3.8z"/><path id="Layer" class="s2" d="M211 478.2c-46.2-43.7-75-105.6-75-174.2 0-62.9 24.2-120.2 63.9-163 5.8 6.7 14.5 11 24.1 11 17.7 0 32-14.3 32-32 0-7.5-2.6-14.3-6.8-19.8 15.9-9.9 33.1-18 51.3-24.1.3 5.8 2.3 12 6.1 17.6 9.1 13.5 25 18.7 35.5 11.6s11.6-23.8 2.5-37.3q-.7-.9-1.3-1.8C354 64.8 364.9 64 376 64c9.8 0 19.5.7 29 1.8-28.2-26.7-62.9-46.7-101.4-57.3h-.3l-5.2-1.4q-.3-.1-.6-.1-2.4-.6-4.9-1.2l-1-.2q-2.2-.5-4.5-1l-1.4-.2q-2.1-.5-4.3-.8-.8-.2-1.7-.3-2-.4-4-.7l-2-.2-3.8-.6-2.4-.2q-1.7-.2-3.5-.4-1.3-.1-2.7-.2-1.6-.2-3.2-.3-1.6-.1-3.1-.2t-2.9-.2q-1.9-.1-3.7-.1-1.2-.1-2.3-.1Q243 0 240 0C107.5 0 0 107.5 0 240q0 3 .1 6v2q.1 1.9.2 3.9.1 1.2.1 2.4.1 1.8.3 3.5.1 1.3.2 2.5.1 1.7.3 3.4l.2 2.6.4 3.2.4 2.6.4 3.2q.2 1.3.4 2.7.2 1.5.5 3 .2 1.3.5 2.7.3 1.5.5 2.9l.6 2.8.6 2.8q.3 1.4.7 2.8.3 1.4.6 2.7.4 1.5.7 2.9.4 1.3.7 2.5.4 1.5.8 3.1.3.9.6 1.9 2 6.6 4.3 13.1.1.4.3.7.7 2 1.5 4 .2.6.4 1.3l1.6 3.8q.2.6.5 1.3l1.6 3.8q.3.6.6 1.3.8 1.9 1.7 3.8.3.6.6 1.1.9 2 1.8 3.9.3.5.5 1 1 2 2.1 4 .2.4.4.7l2.2 4.2.2.4c36.6 65.6 103 112.3 180.9 121.7zm98.1-421.7c10-6.8 24.8-2.3 34.1 9.8-14.7 2-28.9 5.3-42.6 9.9-.4-8.2 2.4-15.6 8.5-19.7zM202.3 34.3c3-2.9 8.3-2.9 11.4 0 1.4 1.5 2.3 3.6 2.3 5.7s-.9 4.2-2.3 5.7c-1.5 1.4-3.6 2.3-5.7 2.3s-4.2-.9-5.7-2.3c-1.4-1.5-2.3-3.5-2.3-5.7s.9-4.2 2.3-5.7zM192 118.4c.9-16.4 14-29.5 30.4-30.4h1.6c10.2 0 19.2 4.9 25.1 12.3-18.2 11.4-34.7 25-49.1 40.6-4.9-5.6-8-12.9-8-20.9v-1.6zm-87.8-18.2c9.4-9.4 23.7-10.4 31.9-2.1 8.3 8.2 7.3 22.5-2.1 31.9-9.4 9.4-23.7 10.4-31.9 2.1-8.3-8.2-7.3-22.5 2.1-31.9zM120 287.9c0 2.1-.9 4.2-2.3 5.7-1.5 1.4-3.6 2.3-5.7 2.3s-4.2-.9-5.7-2.3c-1.4-1.5-2.3-3.6-2.3-5.7s.9-4.2 2.3-5.7c3-2.9 8.4-2.9 11.4 0 1.4 1.5 2.3 3.6 2.3 5.7zM48 224c0-17.7 12.5-32 28-32s28 14.3 28 32-12.5 32-28 32-28-14.3-28-32zm29.1 101.1c9.4-9.4 27.1-6.9 39.6 5.6s15 30.3 5.6 39.6c-9.3 9.4-27.1 6.9-39.6-5.6s-15-30.2-5.6-39.6z"/><path id="Layer" class="s1" d="M76 256c-15.5 0-28-14.3-28-32s12.5-32 28-32 28 14.3 28 32-12.5 32-28 32zM82.7 364.7c-12.5-12.5-15-30.2-5.6-39.6 9.4-9.4 27.1-6.9 39.6 5.6 12.5 12.6 15 30.3 5.6 39.6-9.3 9.4-27 6.9-39.6-5.6z"/><path id="Layer" class="s2" d="M387.9 324.1c6.8 6.7 5 19.5-4 28.5-9.1 9-21.8 10.8-28.5 4-6.8-6.7-5-19.4 4-28.5 9-9 21.8-10.8 28.5-4zM192 200c2.1 0 4.2-.9 5.7-2.3 1.4-1.5 2.3-3.6 2.3-5.7s-.9-4.2-2.3-5.7c-3.1-2.9-8.3-2.9-11.4 0-1.4 1.5-2.3 3.5-2.3 5.7 0 2.1.9 4.2 2.3 5.7 1.5 1.4 3.6 2.3 5.7 2.3z"/><path id="Layer" fill-rule="evenodd" class="s1" d="M106.3 282.2c-1.4 1.5-2.3 3.6-2.3 5.7s.9 4.2 2.3 5.7c1.5 1.4 3.6 2.3 5.7 2.3s4.2-.9 5.7-2.3c1.4-1.5 2.3-3.6 2.3-5.7s-.9-4.2-2.3-5.7c-3-2.9-8.4-2.9-11.4 0z"/><path id="Layer" class="s2" d="M314.3 282.3c-1.4 1.5-2.3 3.6-2.3 5.7s.9 4.2 2.3 5.7c1.5 1.4 3.6 2.3 5.7 2.3s4.2-.9 5.7-2.3c1.4-1.5 2.3-3.6 2.3-5.7s-.9-4.2-2.3-5.7c-3.1-2.9-8.3-2.9-11.4 0zM384 160c2.1 0 4.2-.9 5.7-2.3 1.4-1.5 2.3-3.6 2.3-5.7s-.9-4.2-2.3-5.7c-3.1-2.9-8.5-2.9-11.3 0-1.5 1.5-2.4 3.5-2.4 5.7 0 2.1.9 4.2 2.3 5.7 1.5 1.4 3.5 2.3 5.7 2.3z"/><path id="Layer" class="s1" d="M208 48c2.1 0 4.2-.9 5.7-2.3 1.4-1.5 2.3-3.6 2.3-5.7s-.9-4.2-2.3-5.7c-3.1-2.9-8.4-2.9-11.4 0-1.4 1.5-2.3 3.5-2.3 5.7s.9 4.2 2.3 5.7c1.5 1.4 3.6 2.3 5.7 2.3z"/><path id="Layer" class="s2" d="M170.3 378.3c-1.4 1.5-2.3 3.6-2.3 5.7s.9 4.2 2.3 5.7c1.5 1.4 3.6 2.3 5.7 2.3s4.2-.9 5.7-2.3c1.4-1.5 2.3-3.6 2.3-5.7s-.9-4.2-2.3-5.7c-3.1-2.9-8.3-2.9-11.4 0zM228 344c-24.3 0-44-19.7-44-44s19.7-44 44-44 44 19.7 44 44-19.7 44-44 44zM312 216c-13.3 0-24-10.7-24-24s10.7-24 24-24 24 10.7 24 24-10.7 24-24 24zM296.6 402.2c4 15-8.6 31.4-28.3 36.7-19.7 5.3-38.9-2.6-42.9-17.6-4-15 8.7-31.4 28.3-36.7 19.7-5.3 38.9 2.6 42.9 17.6zM415.5 241.6c-2.7 16.4-14.9 28.1-27.2 26-12.3-2-20.1-16.9-17.4-33.3 2.7-16.5 14.9-28.1 27.2-26.1 12.3 2.1 20.1 17 17.4 33.4z"/><path id="Layer" class="s1" d="M200 140.9c14.4-15.6 30.9-29.2 49.1-40.6C243.2 92.9 234.2 88 224 88h-1.6c-16.4.9-29.5 14-30.4 30.4v1.6c0 8 3.1 15.3 8 20.9zM102.1 132.1c-8.3-8.2-7.3-22.5 2.1-31.9 9.4-9.4 23.7-10.4 31.9-2.1 8.3 8.2 7.3 22.5-2.1 31.9-9.4 9.4-23.7 10.4-31.9 2.1zM300.6 76.2c13.7-4.6 27.9-7.9 42.6-9.9-9.3-12.1-24.1-16.6-34.1-9.8-6.1 4.1-8.9 11.5-8.5 19.7z"/></g></svg>